<svg width="124" height="24" viewBox="0 0 124 24" fill="none" xmlns="http://www.w3.org/2000/svg">
<g clip-path="url(#clip0_3_22)">
<path d="M23.8969 23.0198L19.6782 13.1761C19.5674 12.9175 19.313 12.75 19.0318 12.75H4.96929C4.68804 12.75 4.43389 12.9175 4.32311 13.1761L0.10436 23.0198C-0.0941264 23.4829 0.245717 24 0.750539 24H23.2505C23.7543 24 24.0958 23.4838 23.8969 23.0198Z" fill="#E0F4FE"/>
<path d="M23.2506 24H12.0005V12.75H19.0318C19.313 12.75 19.5672 12.9177 19.6782 13.1761L23.8969 23.0198C24.0958 23.4838 23.7545 24 23.2506 24Z" fill="#BCDCFE"/>
<path d="M3.03314 19.9893L2.44501 21.1271C2.44501 21.1271 1.97607 22.2217 1.81659 22.5938H10.3032L11.2134 22.4846L6.80585 18.0549L3.03314 19.9893Z" fill="#159BE1"/>
<path d="M20.8773 19.7574L20.6534 19.021C20.6534 19.021 19.6663 16.7179 18.5684 14.1562H16.0525L14.35 14.187L6.80585 18.0549L11.2134 22.4846L12.2917 22.5938H13.7547L15.4371 22.5467L20.8773 19.7574Z" fill="#5DC983"/>
<path d="M20.8773 19.7573L15.4371 22.5469L13.7547 22.5938H12.2917L12.0005 22.5643V15.3918L14.35 14.1872L15.4872 14.1665L16.0525 14.1562H18.5682C19.6661 16.7179 20.6532 19.021 20.6532 19.021L20.8773 19.7573Z" fill="#0EAB61"/>
<path d="M5.43292 14.1562C5.00189 15.162 3.31604 19.095 3.31604 19.095L3.03314 19.9893L14.3498 14.187L12.9662 14.1562H5.43292Z" fill="#0EAB61"/>
<path d="M14.35 14.1872L12.0005 15.3918V14.1562H12.9662L14.35 14.1872Z" fill="#0EAB61"/>
<path d="M20.8773 19.7574L15.4371 22.5467L16.8124 22.5938H22.1841C21.6868 21.4327 21.2087 20.3172 21.2087 20.3172L20.8773 19.7574Z" fill="#159BE1"/>
<path d="M7.98395 18.286L12.2917 22.5938H10.3032L6.66852 18.9591L2.44885 21.1181L3.31604 19.095C3.4314 19.036 12.8509 14.2152 12.9662 14.1562H16.0525L7.98395 18.286Z" fill="#FED941"/>
<path d="M12.0005 22.3026L12.2917 22.5938H12.0005V22.3026Z" fill="#FEB99E"/>
<path d="M16.0525 14.1562L15.2102 14.5875L12.0005 16.2299V14.6503C12.5781 14.3549 12.9443 14.1674 12.9662 14.1562H16.0525Z" fill="#FCBE29"/>
<path d="M21.2087 20.317L16.8124 22.5938H13.7547L20.6532 19.021L21.2087 20.317Z" fill="#FCBE29"/>
<path d="M12.0005 0C8.56348 0 5.67242 2.51953 5.67242 6.89062C5.67242 11.3214 11.2333 17.7673 11.4701 18.0396C11.7499 18.3615 12.2509 18.362 12.5312 18.0396C12.7679 17.7673 18.3287 11.3214 18.3287 6.89062C18.3287 2.55981 15.3847 0 12.0005 0ZM12.0005 8.4375C10.8375 8.4375 9.89117 7.49121 9.89117 6.32812C9.89117 5.16504 10.8375 4.21875 12.0005 4.21875C13.1636 4.21875 14.1099 5.16504 14.1099 6.32812C14.1099 7.49121 13.1636 8.4375 12.0005 8.4375Z" fill="#EE3616"/>
<path d="M12.0005 0V4.21875C13.1636 4.21875 14.1099 5.16522 14.1099 6.32812C14.1099 7.49103 13.1636 8.4375 12.0005 8.4375V18.2812C12.1961 18.2812 12.3911 18.2007 12.5312 18.0394C14.605 15.6553 18.3287 10.4626 18.3287 6.89062C18.3287 2.55981 15.3845 0 12.0005 0Z" fill="#CB0010"/>
</g>
<path d="M43.791 9.37109C43.6413 8.86328 43.4102 8.43034 43.0977 8.07227C42.7852 7.70768 42.4076 7.43099 41.9648 7.24219C41.5221 7.04688 41.0176 6.94922 40.4512 6.94922C39.6829 6.94922 39.0026 7.14453 38.4102 7.53516C37.8177 7.91927 37.3522 8.48568 37.0137 9.23438C36.6751 9.97656 36.5059 10.8717 36.5059 11.9199C36.5059 12.9746 36.6719 13.8763 37.0039 14.625C37.3359 15.3737 37.8014 15.9434 38.4004 16.334C39.0059 16.7181 39.709 16.9102 40.5098 16.9102C41.2259 16.9102 41.8477 16.7734 42.375 16.5C42.9089 16.2201 43.319 15.8229 43.6055 15.3086C43.8919 14.7878 44.0352 14.1888 44.0352 13.5117L44.6113 13.5996H40.7637V11.5977H46.4961V13.2969C46.4961 14.4818 46.2389 15.5202 45.7246 16.4121C45.2168 17.304 44.5104 17.9909 43.6055 18.4727C42.7005 18.9544 41.6654 19.1953 40.5 19.1953C39.2044 19.1953 38.0618 18.9023 37.0723 18.3164C36.0892 17.724 35.3242 16.8809 34.7773 15.7871C34.2305 14.6934 33.957 13.4108 33.957 11.9395C33.957 10.4486 34.237 9.15625 34.7969 8.0625C35.3568 6.96875 36.125 6.12891 37.1016 5.54297C38.0781 4.95703 39.1816 4.66406 40.4121 4.66406C41.4473 4.66406 42.3913 4.86263 43.2441 5.25977C44.097 5.6569 44.7969 6.21029 45.3438 6.91992C45.8971 7.62956 46.2454 8.44661 46.3887 9.37109H43.791ZM53.3906 19.2051C52.3424 19.2051 51.431 18.9837 50.6562 18.541C49.8815 18.0983 49.2826 17.4668 48.8594 16.6465C48.4427 15.8262 48.2344 14.8659 48.2344 13.7656C48.2344 12.6784 48.4427 11.7181 48.8594 10.8848C49.2826 10.0449 49.8717 9.39714 50.627 8.94141C51.3822 8.48568 52.2611 8.25781 53.2637 8.25781C54.1686 8.25781 54.9857 8.44987 55.7148 8.83398C56.444 9.2181 57.0234 9.8138 57.4531 10.6211C57.8828 11.4219 58.0977 12.4147 58.0977 13.5996V14.3809H49.416V12.6914H55.7148C55.7148 12.2096 55.6139 11.7799 55.4121 11.4023C55.2103 11.0247 54.9238 10.7285 54.5527 10.5137C54.1882 10.2988 53.7682 10.1914 53.293 10.1914C52.7852 10.1914 52.3359 10.3118 51.9453 10.5527C51.5547 10.7936 51.2487 11.1191 51.0273 11.5293C50.8125 11.9329 50.7018 12.3757 50.6953 12.8574V14.3027C50.6953 14.9212 50.806 15.4551 51.0273 15.9043C51.2552 16.347 51.5742 16.6855 51.9844 16.9199C52.3945 17.1543 52.873 17.2715 53.4199 17.2715C53.7715 17.2715 54.0872 17.2227 54.3672 17.125C54.6536 17.0273 54.8978 16.9004 55.0996 16.7441C55.3014 16.5814 55.4544 16.3893 55.5586 16.168H58C57.8503 16.7734 57.5671 17.3073 57.1504 17.7695C56.7402 18.2253 56.2129 18.5801 55.5684 18.834C54.9238 19.0814 54.1979 19.2051 53.3906 19.2051ZM64.6699 19.2051C63.6543 19.2051 62.7591 18.9772 61.9844 18.5215C61.2161 18.0658 60.6237 17.4245 60.207 16.5977C59.7904 15.7708 59.582 14.8171 59.582 13.7363C59.582 12.6426 59.7904 11.6855 60.207 10.8652C60.6237 10.0384 61.2161 9.39714 61.9844 8.94141C62.7591 8.48568 63.6543 8.25781 64.6699 8.25781C65.6921 8.25781 66.5872 8.48568 67.3555 8.94141C68.1237 9.39714 68.7129 10.0384 69.123 10.8652C69.5332 11.6855 69.7383 12.6426 69.7383 13.7363C69.7383 14.8171 69.5332 15.7708 69.123 16.5977C68.7129 17.4245 68.1237 18.0658 67.3555 18.5215C66.5872 18.9772 65.6921 19.2051 64.6699 19.2051ZM64.6895 17.2227C65.2363 17.2227 65.6986 17.0697 66.0762 16.7637C66.4603 16.4512 66.7467 16.0312 66.9355 15.5039C67.1243 14.9766 67.2188 14.3841 67.2188 13.7266C67.2188 13.0625 67.1243 12.4668 66.9355 11.9395C66.7467 11.4121 66.4603 10.9954 66.0762 10.6895C65.6986 10.377 65.2363 10.2207 64.6895 10.2207C64.1296 10.2207 63.6543 10.377 63.2637 10.6895C62.873 10.9954 62.5801 11.4121 62.3848 11.9395C62.1895 12.4668 62.0918 13.0625 62.0918 13.7266C62.0918 14.3906 62.1895 14.9863 62.3848 15.5137C62.5801 16.0345 62.873 16.4512 63.2637 16.7637C63.6543 17.0697 64.1296 17.2227 64.6895 17.2227ZM69.8066 4.85938H72.5215L75.0898 15.2695H75.2168L77.9414 4.85938H80.4512L83.1855 15.2793H83.3027L85.8613 4.85938H88.5859L84.6113 19H82.082L79.2598 9.04883H79.1426L76.3105 19H73.791L69.8066 4.85938ZM93.6152 19.2051C92.5996 19.2051 91.7044 18.9772 90.9297 18.5215C90.1615 18.0658 89.569 17.4245 89.1523 16.5977C88.7357 15.7708 88.5273 14.8171 88.5273 13.7363C88.5273 12.6426 88.7357 11.6855 89.1523 10.8652C89.569 10.0384 90.1615 9.39714 90.9297 8.94141C91.7044 8.48568 92.5996 8.25781 93.6152 8.25781C94.6374 8.25781 95.5326 8.48568 96.3008 8.94141C97.069 9.39714 97.6582 10.0384 98.0684 10.8652C98.4785 11.6855 98.6836 12.6426 98.6836 13.7363C98.6836 14.8171 98.4785 15.7708 98.0684 16.5977C97.6582 17.4245 97.069 18.0658 96.3008 18.5215C95.5326 18.9772 94.6374 19.2051 93.6152 19.2051ZM93.6348 17.2227C94.1816 17.2227 94.6439 17.0697 95.0215 16.7637C95.4056 16.4512 95.6921 16.0312 95.8809 15.5039C96.0697 14.9766 96.1641 14.3841 96.1641 13.7266C96.1641 13.0625 96.0697 12.4668 95.8809 11.9395C95.6921 11.4121 95.4056 10.9954 95.0215 10.6895C94.6439 10.377 94.1816 10.2207 93.6348 10.2207C93.0749 10.2207 92.5996 10.377 92.209 10.6895C91.8184 10.9954 91.5254 11.4121 91.3301 11.9395C91.1348 12.4668 91.0371 13.0625 91.0371 13.7266C91.0371 14.3906 91.1348 14.9863 91.3301 15.5137C91.5254 16.0345 91.8184 16.4512 92.209 16.7637C92.5996 17.0697 93.0749 17.2227 93.6348 17.2227ZM100.637 8.39453H103.039V10.1621H103.156C103.345 9.55013 103.674 9.07812 104.143 8.74609C104.611 8.40755 105.152 8.23828 105.764 8.23828C106.076 8.23828 106.379 8.26107 106.672 8.30664V10.6016C106.568 10.556 106.398 10.5202 106.164 10.4941C105.93 10.4681 105.712 10.4551 105.51 10.4551C105.061 10.4551 104.654 10.5527 104.289 10.748C103.924 10.9434 103.638 11.2168 103.43 11.5684C103.221 11.9134 103.117 12.3105 103.117 12.7598V19H100.637V8.39453ZM110.656 19H108.176V4.85938H110.656V19ZM116.994 19.1855C116.161 19.1855 115.412 18.9707 114.748 18.541C114.084 18.1048 113.56 17.4733 113.176 16.6465C112.798 15.8197 112.609 14.8398 112.609 13.707C112.609 12.5612 112.801 11.5781 113.186 10.7578C113.57 9.93099 114.094 9.30924 114.758 8.89258C115.422 8.4694 116.167 8.25781 116.994 8.25781C117.554 8.25781 118.029 8.3457 118.42 8.52148C118.817 8.69727 119.133 8.91536 119.367 9.17578C119.602 9.42969 119.803 9.71615 119.973 10.0352L120.031 10.1426H120.119V4.85938H122.619V19H120.178V17.3301H120.031L119.973 17.4375C119.797 17.7565 119.589 18.043 119.348 18.2969C119.113 18.5443 118.798 18.7559 118.4 18.9316C118.01 19.1009 117.541 19.1855 116.994 19.1855ZM117.668 17.1445C118.202 17.1445 118.658 17.0013 119.035 16.7148C119.413 16.4284 119.699 16.0247 119.895 15.5039C120.096 14.9766 120.197 14.3711 120.197 13.6875C120.197 12.9974 120.1 12.3984 119.904 11.8906C119.709 11.3828 119.423 10.9922 119.045 10.7188C118.667 10.4388 118.208 10.2988 117.668 10.2988C117.134 10.2988 116.678 10.4421 116.301 10.7285C115.923 11.0085 115.637 11.4056 115.441 11.9199C115.246 12.4342 115.148 13.0234 115.148 13.6875C115.148 14.3646 115.246 14.9635 115.441 15.4844C115.637 15.9987 115.923 16.4056 116.301 16.7051C116.678 16.998 117.134 17.1445 117.668 17.1445Z" fill="black"/>
<defs>
<clipPath id="clip0_3_22">
<rect width="24" height="24" fill="white"/>
</clipPath>
</defs>
</svg>
